<svg width="86" height="24" viewBox="0 0 86 24" fill="none" xmlns="http://www.w3.org/2000/svg">
<g clip-path="url(#clip0_207_3971)">
<path d="M17 4C14.8787 4 12.8425 4.84338 11.3438 6.34313C9.84345 7.84347 9.00042 9.87823 9 12C9 14.1209 9.84375 16.1571 11.3438 17.6569C12.8425 19.1566 14.8787 20 17 20C19.1213 20 21.1575 19.1566 22.6562 17.6569C24.1562 16.1571 25 14.1209 25 12C25 9.87913 24.1562 7.84288 22.6562 6.34313C21.1575 4.84338 19.1213 4 17 4Z" fill="url(#paint0_linear_207_3971)"/>
<path d="M12.6216 11.915C14.9541 10.899 16.5091 10.2292 17.2866 9.90554C19.5091 8.98141 19.9703 8.82091 20.2716 8.81548C20.3378 8.81441 20.4853 8.83079 20.5816 8.9086C20.6616 8.97423 20.6841 9.06298 20.6953 9.12529C20.7053 9.18754 20.7191 9.32941 20.7078 9.44016C20.5878 10.7052 20.0666 13.7749 19.8016 15.1918C19.6903 15.7913 19.4691 15.9923 19.2553 16.0119C18.7903 16.0547 18.4378 15.7049 17.9878 15.41C17.2841 14.9484 16.8866 14.6612 16.2028 14.2108C15.4128 13.6903 15.9253 13.4042 16.3753 12.9367C16.4928 12.8143 18.5403 10.9524 18.5791 10.7835C18.5841 10.7624 18.5891 10.6837 18.5416 10.6422C18.4953 10.6005 18.4266 10.6148 18.3766 10.626C18.3053 10.642 17.1816 11.3855 15.0016 12.8564C14.6828 13.0757 14.3941 13.1825 14.1341 13.1769C13.8491 13.1708 13.2991 13.0154 12.8903 12.8827C12.3903 12.7198 11.9916 12.6337 12.0266 12.357C12.0441 12.213 12.2428 12.0657 12.6216 11.915Z" fill="white"/>
</g>
<path d="M36.4521 7.89062V15H35.5244V7.89062H36.4521ZM38.7373 7.89062V8.66211H33.2441V7.89062H38.7373ZM41.3594 15.0977C40.9915 15.0977 40.6579 15.0358 40.3584 14.9121C40.0622 14.7852 39.8066 14.6077 39.5918 14.3799C39.3802 14.152 39.2174 13.8818 39.1035 13.5693C38.9896 13.2568 38.9326 12.915 38.9326 12.5439V12.3389C38.9326 11.9092 38.9961 11.5267 39.123 11.1914C39.25 10.8529 39.4225 10.5664 39.6406 10.332C39.8587 10.0977 40.1061 9.92025 40.3828 9.7998C40.6595 9.67936 40.946 9.61914 41.2422 9.61914C41.6198 9.61914 41.9453 9.68424 42.2188 9.81445C42.4954 9.94466 42.7217 10.127 42.8975 10.3613C43.0732 10.5924 43.2035 10.8659 43.2881 11.1816C43.3727 11.4941 43.415 11.8359 43.415 12.207V12.6123H39.4697V11.875H42.5117V11.8066C42.4987 11.5723 42.4499 11.3444 42.3652 11.123C42.2839 10.9017 42.1536 10.7194 41.9746 10.5762C41.7956 10.4329 41.5514 10.3613 41.2422 10.3613C41.0371 10.3613 40.8483 10.4053 40.6758 10.4932C40.5033 10.5778 40.3551 10.7048 40.2314 10.874C40.1077 11.0433 40.0117 11.25 39.9434 11.4941C39.875 11.7383 39.8408 12.0199 39.8408 12.3389V12.5439C39.8408 12.7946 39.875 13.0306 39.9434 13.252C40.015 13.4701 40.1175 13.6621 40.251 13.8281C40.3877 13.9941 40.5521 14.1243 40.7441 14.2188C40.9395 14.3132 41.1608 14.3604 41.4082 14.3604C41.7272 14.3604 41.9974 14.2952 42.2188 14.165C42.4401 14.0348 42.6338 13.8607 42.7998 13.6426L43.3467 14.0771C43.2327 14.2497 43.0879 14.4141 42.9121 14.5703C42.7363 14.7266 42.5199 14.8535 42.2627 14.9512C42.0088 15.0488 41.7077 15.0977 41.3594 15.0977ZM45.4512 7.5V15H44.543V7.5H45.4512ZM49.0938 15.0977C48.7259 15.0977 48.3923 15.0358 48.0928 14.9121C47.7965 14.7852 47.541 14.6077 47.3262 14.3799C47.1146 14.152 46.9518 13.8818 46.8379 13.5693C46.724 13.2568 46.667 12.915 46.667 12.5439V12.3389C46.667 11.9092 46.7305 11.5267 46.8574 11.1914C46.9844 10.8529 47.1569 10.5664 47.375 10.332C47.5931 10.0977 47.8405 9.92025 48.1172 9.7998C48.3939 9.67936 48.6803 9.61914 48.9766 9.61914C49.3542 9.61914 49.6797 9.68424 49.9531 9.81445C50.2298 9.94466 50.4561 10.127 50.6318 10.3613C50.8076 10.5924 50.9378 10.8659 51.0225 11.1816C51.1071 11.4941 51.1494 11.8359 51.1494 12.207V12.6123H47.2041V11.875H50.2461V11.8066C50.2331 11.5723 50.1842 11.3444 50.0996 11.123C50.0182 10.9017 49.888 10.7194 49.709 10.5762C49.5299 10.4329 49.2858 10.3613 48.9766 10.3613C48.7715 10.3613 48.5827 10.4053 48.4102 10.4932C48.2376 10.5778 48.0895 10.7048 47.9658 10.874C47.8421 11.0433 47.7461 11.25 47.6777 11.4941C47.6094 11.7383 47.5752 12.0199 47.5752 12.3389V12.5439C47.5752 12.7946 47.6094 13.0306 47.6777 13.252C47.7493 13.4701 47.8519 13.6621 47.9854 13.8281C48.1221 13.9941 48.2865 14.1243 48.4785 14.2188C48.6738 14.3132 48.8952 14.3604 49.1426 14.3604C49.4616 14.3604 49.7318 14.2952 49.9531 14.165C50.1745 14.0348 50.3682 13.8607 50.5342 13.6426L51.0811 14.0771C50.9671 14.2497 50.8223 14.4141 50.6465 14.5703C50.4707 14.7266 50.2542 14.8535 49.9971 14.9512C49.7432 15.0488 49.4421 15.0977 49.0938 15.0977ZM55.627 9.7168H56.4473V14.8877C56.4473 15.3532 56.3529 15.7503 56.1641 16.0791C55.9753 16.4079 55.7116 16.6569 55.373 16.8262C55.0378 16.9987 54.6504 17.085 54.2109 17.085C54.0286 17.085 53.8138 17.0557 53.5664 16.9971C53.3223 16.9417 53.0814 16.8457 52.8438 16.709C52.6094 16.5755 52.4124 16.3949 52.2529 16.167L52.7266 15.6299C52.9479 15.8968 53.179 16.0824 53.4199 16.1865C53.6641 16.2907 53.9049 16.3428 54.1426 16.3428C54.429 16.3428 54.6764 16.2891 54.8848 16.1816C55.0931 16.0742 55.2542 15.9147 55.3682 15.7031C55.4854 15.4948 55.5439 15.2376 55.5439 14.9316V10.8789L55.627 9.7168ZM51.9893 12.417V12.3145C51.9893 11.9108 52.0365 11.5446 52.1309 11.2158C52.2285 10.8838 52.3669 10.599 52.5459 10.3613C52.7282 10.1237 52.9479 9.94141 53.2051 9.81445C53.4622 9.68424 53.752 9.61914 54.0742 9.61914C54.4062 9.61914 54.696 9.67773 54.9434 9.79492C55.194 9.90885 55.4056 10.0765 55.5781 10.2979C55.7539 10.516 55.8923 10.7796 55.9932 11.0889C56.0941 11.3981 56.1641 11.748 56.2031 12.1387V12.5879C56.1673 12.9753 56.0973 13.3236 55.9932 13.6328C55.8923 13.9421 55.7539 14.2057 55.5781 14.4238C55.4056 14.6419 55.194 14.8096 54.9434 14.9268C54.6927 15.0407 54.3997 15.0977 54.0645 15.0977C53.7487 15.0977 53.4622 15.0309 53.2051 14.8975C52.9512 14.764 52.7331 14.5768 52.5508 14.3359C52.3685 14.0951 52.2285 13.8118 52.1309 13.4863C52.0365 13.1576 51.9893 12.8011 51.9893 12.417ZM52.8926 12.3145V12.417C52.8926 12.6807 52.9186 12.9281 52.9707 13.1592C53.026 13.3903 53.109 13.5938 53.2197 13.7695C53.3337 13.9453 53.4785 14.0837 53.6543 14.1846C53.8301 14.2822 54.04 14.3311 54.2842 14.3311C54.5837 14.3311 54.8311 14.2676 55.0264 14.1406C55.2217 14.0137 55.3763 13.846 55.4902 13.6377C55.6074 13.4294 55.6986 13.2031 55.7637 12.959V11.7822C55.7279 11.6032 55.6725 11.4307 55.5977 11.2646C55.526 11.0954 55.4316 10.9456 55.3145 10.8154C55.2005 10.682 55.0589 10.5762 54.8896 10.498C54.7204 10.4199 54.5218 10.3809 54.2939 10.3809C54.0465 10.3809 53.8333 10.4329 53.6543 10.5371C53.4785 10.638 53.3337 10.778 53.2197 10.957C53.109 11.1328 53.026 11.3379 52.9707 11.5723C52.9186 11.8034 52.8926 12.0508 52.8926 12.3145ZM58.7227 10.5469V15H57.8193V9.7168H58.6982L58.7227 10.5469ZM60.373 9.6875L60.3682 10.5273C60.2933 10.5111 60.2217 10.5013 60.1533 10.498C60.0882 10.4915 60.0133 10.4883 59.9287 10.4883C59.7204 10.4883 59.5365 10.5208 59.377 10.5859C59.2174 10.651 59.0824 10.7422 58.9717 10.8594C58.861 10.9766 58.7731 11.1165 58.708 11.2793C58.6462 11.4388 58.6055 11.6146 58.5859 11.8066L58.332 11.9531C58.332 11.6341 58.363 11.3346 58.4248 11.0547C58.4899 10.7747 58.5892 10.5273 58.7227 10.3125C58.8561 10.0944 59.0254 9.92513 59.2305 9.80469C59.4388 9.68099 59.6862 9.61914 59.9727 9.61914C60.0378 9.61914 60.1126 9.62728 60.1973 9.64355C60.2819 9.65658 60.3405 9.67122 60.373 9.6875ZM64.1279 14.0967V11.377C64.1279 11.1686 64.0856 10.988 64.001 10.835C63.9196 10.6787 63.7959 10.5583 63.6299 10.4736C63.4639 10.389 63.2588 10.3467 63.0146 10.3467C62.7868 10.3467 62.5866 10.3857 62.4141 10.4639C62.2448 10.542 62.1113 10.6445 62.0137 10.7715C61.9193 10.8984 61.8721 11.0352 61.8721 11.1816H60.9688C60.9688 10.9928 61.0176 10.8057 61.1152 10.6201C61.2129 10.4346 61.3529 10.2669 61.5352 10.1172C61.7207 9.96419 61.9421 9.84375 62.1992 9.75586C62.4596 9.66471 62.7493 9.61914 63.0684 9.61914C63.4525 9.61914 63.791 9.68424 64.084 9.81445C64.3802 9.94466 64.6113 10.1416 64.7773 10.4053C64.9466 10.6657 65.0312 10.9928 65.0312 11.3867V13.8477C65.0312 14.0234 65.0459 14.2106 65.0752 14.4092C65.1077 14.6077 65.1549 14.7786 65.2168 14.9219V15H64.2744C64.2288 14.8958 64.193 14.7575 64.167 14.585C64.141 14.4092 64.1279 14.2464 64.1279 14.0967ZM64.2842 11.7969L64.2939 12.4316H63.3809C63.1237 12.4316 62.8942 12.4528 62.6924 12.4951C62.4906 12.5342 62.3213 12.5944 62.1846 12.6758C62.0479 12.7572 61.9437 12.8597 61.8721 12.9834C61.8005 13.1038 61.7646 13.2454 61.7646 13.4082C61.7646 13.5742 61.8021 13.7256 61.877 13.8623C61.9518 13.999 62.0641 14.1081 62.2139 14.1895C62.3669 14.2676 62.554 14.3066 62.7754 14.3066C63.0521 14.3066 63.2962 14.248 63.5078 14.1309C63.7194 14.0137 63.887 13.8704 64.0107 13.7012C64.1377 13.5319 64.2061 13.3675 64.2158 13.208L64.6016 13.6426C64.5788 13.7793 64.5169 13.9307 64.416 14.0967C64.3151 14.2627 64.18 14.4222 64.0107 14.5752C63.8447 14.7249 63.6462 14.8503 63.415 14.9512C63.1872 15.0488 62.93 15.0977 62.6436 15.0977C62.2855 15.0977 61.9714 15.0277 61.7012 14.8877C61.4342 14.7477 61.2259 14.5605 61.0762 14.3262C60.9297 14.0885 60.8564 13.8232 60.8564 13.5303C60.8564 13.2471 60.9118 12.998 61.0225 12.7832C61.1331 12.5651 61.2926 12.3844 61.501 12.2412C61.7093 12.0947 61.96 11.984 62.2529 11.9092C62.5459 11.8343 62.873 11.7969 63.2344 11.7969H64.2842ZM67.3506 10.7666V15H66.4424V9.7168H67.3018L67.3506 10.7666ZM67.165 12.1582L66.7451 12.1436C66.7484 11.7822 66.7956 11.4486 66.8867 11.1426C66.9779 10.8333 67.113 10.5648 67.292 10.3369C67.471 10.109 67.694 9.93327 67.9609 9.80957C68.2279 9.68262 68.5371 9.61914 68.8887 9.61914C69.1361 9.61914 69.3639 9.65495 69.5723 9.72656C69.7806 9.79492 69.9613 9.90397 70.1143 10.0537C70.2673 10.2035 70.3861 10.3955 70.4707 10.6299C70.5553 10.8643 70.5977 11.1475 70.5977 11.4795V15H69.6943V11.5234C69.6943 11.2467 69.6471 11.0254 69.5527 10.8594C69.4616 10.6934 69.3314 10.5729 69.1621 10.498C68.9928 10.4199 68.7943 10.3809 68.5664 10.3809C68.2995 10.3809 68.0765 10.4281 67.8975 10.5225C67.7184 10.6169 67.5752 10.7471 67.4678 10.9131C67.3604 11.0791 67.2822 11.2695 67.2334 11.4844C67.1878 11.696 67.165 11.9206 67.165 12.1582ZM70.5879 11.6602L69.9824 11.8457C69.9857 11.556 70.0329 11.2777 70.124 11.0107C70.2184 10.7438 70.3535 10.5062 70.5293 10.2979C70.7083 10.0895 70.9281 9.92513 71.1885 9.80469C71.4489 9.68099 71.7467 9.61914 72.082 9.61914C72.3652 9.61914 72.6159 9.65658 72.834 9.73145C73.0553 9.80632 73.2409 9.92188 73.3906 10.0781C73.5436 10.2311 73.6592 10.4281 73.7373 10.6689C73.8154 10.9098 73.8545 11.1963 73.8545 11.5283V15H72.9463V11.5186C72.9463 11.2223 72.8991 10.9928 72.8047 10.8301C72.7135 10.6641 72.5833 10.5485 72.4141 10.4834C72.248 10.415 72.0495 10.3809 71.8184 10.3809C71.6198 10.3809 71.444 10.415 71.291 10.4834C71.138 10.5518 71.0094 10.6462 70.9053 10.7666C70.8011 10.8838 70.7214 11.0189 70.666 11.1719C70.6139 11.3249 70.5879 11.4876 70.5879 11.6602Z" fill="#868686"/>
<rect x="0.5" y="0.5" width="85" height="22.59" rx="7.5" stroke="#DDDDDD"/>
<defs>
<linearGradient id="paint0_linear_207_3971" x1="17" y1="4" x2="17" y2="20" gradientUnits="userSpaceOnUse">
<stop stop-color="#2AABEE"/>
<stop offset="1" stop-color="#229ED9"/>
</linearGradient>
<clipPath id="clip0_207_3971">
<rect width="16" height="16" fill="white" transform="translate(9 4)"/>
</clipPath>
</defs>
</svg>
