<svg width="86" height="24" viewBox="0 0 86 24" fill="none" xmlns="http://www.w3.org/2000/svg">
<rect width="86" height="23.59" rx="8" fill="url(#paint0_linear_207_3991)"/>
<g clip-path="url(#clip0_207_3991)">
<path d="M4.88492 11.3922C4.88449 12.9046 5.28271 14.3813 6.03991 15.6829L4.8125 20.13L9.39873 18.9367C10.6672 19.6219 12.0885 19.981 13.5328 19.9811H13.5365C18.3044 19.9811 22.1855 16.1311 22.1875 11.399C22.1885 9.10594 21.2894 6.94971 19.6559 5.32748C18.0227 3.70538 15.8505 2.81159 13.5362 2.81055C8.7678 2.81055 4.88688 6.66031 4.88492 11.3922Z" fill="url(#paint1_linear_207_3991)"/>
<path d="M7.0627 10.4325C7.06229 11.7425 7.40605 13.0213 8.05961 14.1485L7 18L10.9592 16.9665C12.0501 17.5587 13.2784 17.8709 14.5282 17.8713H14.5314C18.6475 17.8713 21.9982 14.5366 22 10.4384C22.0007 8.45233 21.2245 6.5847 19.8145 5.17976C18.4043 3.775 16.5293 3.00082 14.5314 3C10.4146 3 7.06439 6.33428 7.06275 10.4325H7.0627ZM9.42051 13.9544L9.27268 13.7207C8.65123 12.737 8.32322 11.6002 8.32369 10.4329C8.32504 7.02663 11.1096 4.25531 14.5338 4.25531C16.192 4.25601 17.7503 4.89954 18.9224 6.06712C20.0945 7.23482 20.7394 8.78704 20.739 10.438C20.7375 13.8443 17.9528 16.6159 14.5314 16.6159H14.5289C13.4149 16.6154 12.3223 16.3175 11.3695 15.7547L11.1427 15.6208L8.7932 16.234L9.42051 13.9543V13.9544Z" fill="url(#paint2_linear_207_3991)"/>
<path d="M12.7797 7.32519C12.6506 7.01598 12.5148 7.00974 12.3921 7.00432C12.2917 6.99966 12.1768 7.00001 12.0621 7.00001C11.9472 7.00001 11.7606 7.04659 11.6028 7.2323C11.4449 7.41819 11 7.86739 11 8.781C11 9.69468 11.6172 10.5776 11.7032 10.7016C11.7894 10.8254 12.8947 12.7603 14.6452 13.5047C16.1001 14.1232 16.3962 14.0002 16.7119 13.9692C17.0277 13.9383 17.7309 13.5201 17.8744 13.0865C18.018 12.6529 18.018 12.2812 17.9749 12.2036C17.9319 12.1262 17.817 12.0797 17.6448 11.9869C17.4725 11.894 16.6258 11.4448 16.4679 11.3828C16.31 11.3209 16.1952 11.29 16.0804 11.4759C15.9655 11.6616 15.6357 12.0797 15.5352 12.2036C15.4347 12.3277 15.3342 12.3432 15.162 12.2503C14.9897 12.1571 14.435 11.9613 13.777 11.3287C13.265 10.8365 12.9193 10.2286 12.8189 10.0427C12.7184 9.85701 12.8081 9.75637 12.8945 9.66383C12.9718 9.58063 13.0667 9.44699 13.1529 9.3386C13.2388 9.23014 13.2675 9.15277 13.3249 9.02892C13.3824 8.90496 13.3536 8.79651 13.3106 8.70363C13.2675 8.61075 12.9328 7.69241 12.7797 7.32524" fill="white"/>
</g>
<path d="M33.1953 12.3516L34.6064 7.39062H35.29L34.8945 9.31934L33.376 14.5H32.6973L33.1953 12.3516ZM31.7354 7.39062L32.8584 12.2539L33.1953 14.5H32.5215L30.7979 7.39062H31.7354ZM37.1162 12.249L38.2148 7.39062H39.1572L37.4385 14.5H36.7646L37.1162 12.249ZM35.3926 7.39062L36.7646 12.3516L37.2627 14.5H36.584L35.1191 9.31934L34.7188 7.39062H35.3926ZM40.9688 7V14.5H40.0654V7H40.9688ZM40.7539 11.6582L40.3779 11.6436C40.3812 11.2822 40.4349 10.9486 40.5391 10.6426C40.6432 10.3333 40.7897 10.0648 40.9785 9.83691C41.1673 9.60905 41.3919 9.43327 41.6523 9.30957C41.916 9.18262 42.2074 9.11914 42.5264 9.11914C42.7868 9.11914 43.0212 9.15495 43.2295 9.22656C43.4378 9.29492 43.6152 9.4056 43.7617 9.55859C43.9115 9.71159 44.0254 9.91016 44.1035 10.1543C44.1816 10.3952 44.2207 10.6898 44.2207 11.0381V14.5H43.3125V11.0283C43.3125 10.7516 43.2718 10.5303 43.1904 10.3643C43.109 10.195 42.9902 10.0729 42.834 9.99805C42.6777 9.91992 42.4857 9.88086 42.2578 9.88086C42.0332 9.88086 41.8281 9.92806 41.6426 10.0225C41.4603 10.1169 41.3024 10.2471 41.1689 10.4131C41.0387 10.5791 40.9362 10.7695 40.8613 10.9844C40.7897 11.196 40.7539 11.4206 40.7539 11.6582ZM48.6885 13.5967V10.877C48.6885 10.6686 48.6462 10.488 48.5615 10.335C48.4801 10.1787 48.3564 10.0583 48.1904 9.97363C48.0244 9.889 47.8193 9.84668 47.5752 9.84668C47.3473 9.84668 47.1471 9.88574 46.9746 9.96387C46.8053 10.042 46.6719 10.1445 46.5742 10.2715C46.4798 10.3984 46.4326 10.5352 46.4326 10.6816H45.5293C45.5293 10.4928 45.5781 10.3057 45.6758 10.1201C45.7734 9.93457 45.9134 9.76693 46.0957 9.61719C46.2812 9.46419 46.5026 9.34375 46.7598 9.25586C47.0202 9.16471 47.3099 9.11914 47.6289 9.11914C48.013 9.11914 48.3516 9.18424 48.6445 9.31445C48.9408 9.44466 49.1719 9.6416 49.3379 9.90527C49.5072 10.1657 49.5918 10.4928 49.5918 10.8867V13.3477C49.5918 13.5234 49.6064 13.7106 49.6357 13.9092C49.6683 14.1077 49.7155 14.2786 49.7773 14.4219V14.5H48.835C48.7894 14.3958 48.7536 14.2575 48.7275 14.085C48.7015 13.9092 48.6885 13.7464 48.6885 13.5967ZM48.8447 11.2969L48.8545 11.9316H47.9414C47.6842 11.9316 47.4548 11.9528 47.2529 11.9951C47.0511 12.0342 46.8818 12.0944 46.7451 12.1758C46.6084 12.2572 46.5042 12.3597 46.4326 12.4834C46.361 12.6038 46.3252 12.7454 46.3252 12.9082C46.3252 13.0742 46.3626 13.2256 46.4375 13.3623C46.5124 13.499 46.6247 13.6081 46.7744 13.6895C46.9274 13.7676 47.1146 13.8066 47.3359 13.8066C47.6126 13.8066 47.8568 13.748 48.0684 13.6309C48.2799 13.5137 48.4476 13.3704 48.5713 13.2012C48.6982 13.0319 48.7666 12.8675 48.7764 12.708L49.1621 13.1426C49.1393 13.2793 49.0775 13.4307 48.9766 13.5967C48.8757 13.7627 48.7406 13.9222 48.5713 14.0752C48.4053 14.2249 48.2067 14.3503 47.9756 14.4512C47.7477 14.5488 47.4906 14.5977 47.2041 14.5977C46.846 14.5977 46.5319 14.5277 46.2617 14.3877C45.9948 14.2477 45.7865 14.0605 45.6367 13.8262C45.4902 13.5885 45.417 13.3232 45.417 13.0303C45.417 12.7471 45.4723 12.498 45.583 12.2832C45.6937 12.0651 45.8532 11.8844 46.0615 11.7412C46.2699 11.5947 46.5205 11.484 46.8135 11.4092C47.1064 11.3343 47.4336 11.2969 47.7949 11.2969H48.8447ZM53.2246 9.2168V9.91016H50.3682V9.2168H53.2246ZM51.335 7.93262H52.2383V13.1914C52.2383 13.3704 52.266 13.5055 52.3213 13.5967C52.3766 13.6878 52.4482 13.748 52.5361 13.7773C52.624 13.8066 52.7184 13.8213 52.8193 13.8213C52.8942 13.8213 52.9723 13.8148 53.0537 13.8018C53.1383 13.7855 53.2018 13.7725 53.2441 13.7627L53.249 14.5C53.1774 14.5228 53.083 14.5439 52.9658 14.5635C52.8519 14.5863 52.7135 14.5977 52.5508 14.5977C52.3294 14.5977 52.126 14.5537 51.9404 14.4658C51.7549 14.3779 51.6068 14.2314 51.4961 14.0264C51.3887 13.818 51.335 13.5381 51.335 13.1865V7.93262ZM55.1973 7V7.625C55.1973 7.82031 55.1631 8.02702 55.0947 8.24512C55.0296 8.45996 54.9336 8.66829 54.8066 8.87012C54.6797 9.06868 54.5267 9.24284 54.3477 9.39258L53.8301 9.03613C53.9831 8.82129 54.0986 8.60156 54.1768 8.37695C54.2581 8.14909 54.2988 7.90332 54.2988 7.63965V7H55.1973ZM58.8154 13.0986C58.8154 12.9684 58.7861 12.848 58.7275 12.7373C58.6722 12.6234 58.5566 12.5208 58.3809 12.4297C58.2083 12.3353 57.9479 12.2539 57.5996 12.1855C57.3066 12.1237 57.0413 12.0505 56.8037 11.9658C56.5693 11.8812 56.3691 11.7786 56.2031 11.6582C56.0404 11.5378 55.915 11.3962 55.8271 11.2334C55.7393 11.0706 55.6953 10.8802 55.6953 10.6621C55.6953 10.4538 55.7409 10.2568 55.832 10.0713C55.9264 9.88574 56.0583 9.72135 56.2275 9.57812C56.4001 9.4349 56.6068 9.32259 56.8477 9.24121C57.0885 9.15983 57.3571 9.11914 57.6533 9.11914C58.0765 9.11914 58.4378 9.19401 58.7373 9.34375C59.0368 9.49349 59.2663 9.69368 59.4258 9.94434C59.5853 10.1917 59.665 10.4668 59.665 10.7695H58.7617C58.7617 10.623 58.7178 10.4814 58.6299 10.3447C58.5452 10.2048 58.4199 10.0892 58.2539 9.99805C58.0911 9.9069 57.891 9.86133 57.6533 9.86133C57.4027 9.86133 57.1992 9.90039 57.043 9.97852C56.89 10.0534 56.7777 10.1494 56.7061 10.2666C56.6377 10.3838 56.6035 10.5075 56.6035 10.6377C56.6035 10.7354 56.6198 10.8232 56.6523 10.9014C56.6882 10.9762 56.75 11.0462 56.8379 11.1113C56.9258 11.1732 57.0495 11.2318 57.209 11.2871C57.3685 11.3424 57.5719 11.3978 57.8193 11.4531C58.2523 11.5508 58.6087 11.668 58.8887 11.8047C59.1686 11.9414 59.377 12.109 59.5137 12.3076C59.6504 12.5062 59.7188 12.7471 59.7188 13.0303C59.7188 13.2614 59.6699 13.473 59.5723 13.665C59.4779 13.8571 59.3395 14.0231 59.1572 14.1631C58.9782 14.2998 58.7633 14.4072 58.5127 14.4854C58.2653 14.5602 57.987 14.5977 57.6777 14.5977C57.2122 14.5977 56.8184 14.5146 56.4961 14.3486C56.1738 14.1826 55.9297 13.9678 55.7637 13.7041C55.5977 13.4404 55.5146 13.1621 55.5146 12.8691H56.4229C56.4359 13.1165 56.5075 13.3135 56.6377 13.46C56.7679 13.6032 56.9274 13.7057 57.1162 13.7676C57.305 13.8262 57.4922 13.8555 57.6777 13.8555C57.9251 13.8555 58.1318 13.8229 58.2979 13.7578C58.4671 13.6927 58.5957 13.6032 58.6836 13.4893C58.7715 13.3753 58.8154 13.2451 58.8154 13.0986ZM66.501 13.5967V10.877C66.501 10.6686 66.4587 10.488 66.374 10.335C66.2926 10.1787 66.1689 10.0583 66.0029 9.97363C65.8369 9.889 65.6318 9.84668 65.3877 9.84668C65.1598 9.84668 64.9596 9.88574 64.7871 9.96387C64.6178 10.042 64.4844 10.1445 64.3867 10.2715C64.2923 10.3984 64.2451 10.5352 64.2451 10.6816H63.3418C63.3418 10.4928 63.3906 10.3057 63.4883 10.1201C63.5859 9.93457 63.7259 9.76693 63.9082 9.61719C64.0938 9.46419 64.3151 9.34375 64.5723 9.25586C64.8327 9.16471 65.1224 9.11914 65.4414 9.11914C65.8255 9.11914 66.1641 9.18424 66.457 9.31445C66.7533 9.44466 66.9844 9.6416 67.1504 9.90527C67.3197 10.1657 67.4043 10.4928 67.4043 10.8867V13.3477C67.4043 13.5234 67.4189 13.7106 67.4482 13.9092C67.4808 14.1077 67.528 14.2786 67.5898 14.4219V14.5H66.6475C66.6019 14.3958 66.5661 14.2575 66.54 14.085C66.514 13.9092 66.501 13.7464 66.501 13.5967ZM66.6572 11.2969L66.667 11.9316H65.7539C65.4967 11.9316 65.2673 11.9528 65.0654 11.9951C64.8636 12.0342 64.6943 12.0944 64.5576 12.1758C64.4209 12.2572 64.3167 12.3597 64.2451 12.4834C64.1735 12.6038 64.1377 12.7454 64.1377 12.9082C64.1377 13.0742 64.1751 13.2256 64.25 13.3623C64.3249 13.499 64.4372 13.6081 64.5869 13.6895C64.7399 13.7676 64.9271 13.8066 65.1484 13.8066C65.4251 13.8066 65.6693 13.748 65.8809 13.6309C66.0924 13.5137 66.2601 13.3704 66.3838 13.2012C66.5107 13.0319 66.5791 12.8675 66.5889 12.708L66.9746 13.1426C66.9518 13.2793 66.89 13.4307 66.7891 13.5967C66.6882 13.7627 66.5531 13.9222 66.3838 14.0752C66.2178 14.2249 66.0192 14.3503 65.7881 14.4512C65.5602 14.5488 65.3031 14.5977 65.0166 14.5977C64.6585 14.5977 64.3444 14.5277 64.0742 14.3877C63.8073 14.2477 63.599 14.0605 63.4492 13.8262C63.3027 13.5885 63.2295 13.3232 63.2295 13.0303C63.2295 12.7471 63.2848 12.498 63.3955 12.2832C63.5062 12.0651 63.6657 11.8844 63.874 11.7412C64.0824 11.5947 64.333 11.484 64.626 11.4092C64.9189 11.3343 65.2461 11.2969 65.6074 11.2969H66.6572ZM69.7285 10.2324V16.5312H68.8203V9.2168H69.6504L69.7285 10.2324ZM73.2881 11.8145V11.917C73.2881 12.3011 73.2425 12.6576 73.1514 12.9863C73.0602 13.3118 72.9268 13.5951 72.751 13.8359C72.5785 14.0768 72.3652 14.264 72.1113 14.3975C71.8574 14.5309 71.5661 14.5977 71.2373 14.5977C70.902 14.5977 70.6058 14.5423 70.3486 14.4316C70.0915 14.321 69.8734 14.1598 69.6943 13.9482C69.5153 13.7367 69.3721 13.4827 69.2646 13.1865C69.1605 12.8903 69.0889 12.5566 69.0498 12.1855V11.6387C69.0889 11.248 69.1621 10.8981 69.2695 10.5889C69.377 10.2796 69.5186 10.016 69.6943 9.79785C69.8734 9.5765 70.0898 9.40885 70.3438 9.29492C70.5977 9.17773 70.8906 9.11914 71.2227 9.11914C71.5547 9.11914 71.8493 9.18424 72.1064 9.31445C72.3636 9.44141 72.5801 9.6237 72.7559 9.86133C72.9316 10.099 73.0635 10.3838 73.1514 10.7158C73.2425 11.0446 73.2881 11.4108 73.2881 11.8145ZM72.3799 11.917V11.8145C72.3799 11.5508 72.3522 11.3034 72.2969 11.0723C72.2415 10.8379 72.1553 10.6328 72.0381 10.457C71.9242 10.278 71.7777 10.138 71.5986 10.0371C71.4196 9.93294 71.2064 9.88086 70.959 9.88086C70.7311 9.88086 70.5326 9.91992 70.3633 9.99805C70.1973 10.0762 70.0557 10.182 69.9385 10.3154C69.8213 10.4456 69.7253 10.5954 69.6504 10.7646C69.5788 10.9307 69.5251 11.1032 69.4893 11.2822V12.5469C69.5544 12.7747 69.6455 12.9896 69.7627 13.1914C69.8799 13.39 70.0361 13.5511 70.2314 13.6748C70.4268 13.7952 70.6725 13.8555 70.9688 13.8555C71.2129 13.8555 71.4229 13.805 71.5986 13.7041C71.7777 13.5999 71.9242 13.4583 72.0381 13.2793C72.1553 13.1003 72.2415 12.8952 72.2969 12.6641C72.3522 12.4297 72.3799 12.1807 72.3799 11.917ZM75.3438 10.2324V16.5312H74.4355V9.2168H75.2656L75.3438 10.2324ZM78.9033 11.8145V11.917C78.9033 12.3011 78.8577 12.6576 78.7666 12.9863C78.6755 13.3118 78.542 13.5951 78.3662 13.8359C78.1937 14.0768 77.9805 14.264 77.7266 14.3975C77.4727 14.5309 77.1813 14.5977 76.8525 14.5977C76.5173 14.5977 76.221 14.5423 75.9639 14.4316C75.7067 14.321 75.4886 14.1598 75.3096 13.9482C75.1305 13.7367 74.9873 13.4827 74.8799 13.1865C74.7757 12.8903 74.7041 12.5566 74.665 12.1855V11.6387C74.7041 11.248 74.7773 10.8981 74.8848 10.5889C74.9922 10.2796 75.1338 10.016 75.3096 9.79785C75.4886 9.5765 75.7051 9.40885 75.959 9.29492C76.2129 9.17773 76.5059 9.11914 76.8379 9.11914C77.1699 9.11914 77.4645 9.18424 77.7217 9.31445C77.9788 9.44141 78.1953 9.6237 78.3711 9.86133C78.5469 10.099 78.6787 10.3838 78.7666 10.7158C78.8577 11.0446 78.9033 11.4108 78.9033 11.8145ZM77.9951 11.917V11.8145C77.9951 11.5508 77.9674 11.3034 77.9121 11.0723C77.8568 10.8379 77.7705 10.6328 77.6533 10.457C77.5394 10.278 77.3929 10.138 77.2139 10.0371C77.0348 9.93294 76.8216 9.88086 76.5742 9.88086C76.3464 9.88086 76.1478 9.91992 75.9785 9.99805C75.8125 10.0762 75.6709 10.182 75.5537 10.3154C75.4365 10.4456 75.3405 10.5954 75.2656 10.7646C75.194 10.9307 75.1403 11.1032 75.1045 11.2822V12.5469C75.1696 12.7747 75.2607 12.9896 75.3779 13.1914C75.4951 13.39 75.6514 13.5511 75.8467 13.6748C76.042 13.7952 76.2878 13.8555 76.584 13.8555C76.8281 13.8555 77.0381 13.805 77.2139 13.7041C77.3929 13.5999 77.5394 13.4583 77.6533 13.2793C77.7705 13.1003 77.8568 12.8952 77.9121 12.6641C77.9674 12.4297 77.9951 12.1807 77.9951 11.917Z" fill="white"/>
<defs>
<linearGradient id="paint0_linear_207_3991" x1="43" y1="23.59" x2="43" y2="0" gradientUnits="userSpaceOnUse">
<stop stop-color="#1FAF38"/>
<stop offset="1" stop-color="#60D669"/>
</linearGradient>
<linearGradient id="paint1_linear_207_3991" x1="13.5" y1="20.13" x2="13.5" y2="2.81055" gradientUnits="userSpaceOnUse">
<stop stop-color="#1FAF38"/>
<stop offset="1" stop-color="#60D669"/>
</linearGradient>
<linearGradient id="paint2_linear_207_3991" x1="14.5" y1="18" x2="14.5" y2="3" gradientUnits="userSpaceOnUse">
<stop stop-color="#F9F9F9"/>
<stop offset="1" stop-color="white"/>
</linearGradient>
<clipPath id="clip0_207_3991">
<rect width="18" height="18" fill="white" transform="translate(4.5 2.5)"/>
</clipPath>
</defs>
</svg>
